<svg width="150.653" height="20.935" viewBox="0 0 235.653 73.935" xmlns="http://www.w3.org/2000/svg"><g id="svgGroup" stroke-linecap="round" fill-rule="evenodd" font-size="6pt" stroke="#fff" stroke-width="0.25mm" fill="white" style="stroke:#fff;stroke-width:0.25mm;fill:white"><path d="M 10.973 72.727 L 0 72.727 L 0 0 L 10.973 0 L 10.973 31.605 L 47.23 31.605 L 47.23 0 L 58.239 0 L 58.239 72.727 L 47.23 72.727 L 47.23 41.016 L 10.973 41.016 L 10.973 72.727 Z M 141.513 72.727 L 131.143 72.727 L 131.143 0 L 141.761 0 L 141.761 27.024 L 142.401 27.024 A 20.58 20.58 0 0 1 143.208 25.671 Q 143.664 24.964 144.233 24.184 A 44.559 44.559 0 0 1 145.064 23.082 A 13.114 13.114 0 0 1 147.294 20.861 Q 148.373 20.006 149.714 19.258 A 21.683 21.683 0 0 1 149.893 19.158 A 12.377 12.377 0 0 1 152.854 18.035 Q 155.125 17.472 158.061 17.472 A 22.297 22.297 0 0 1 165.763 18.776 A 20.536 20.536 0 0 1 169.851 20.81 Q 175.036 24.148 178.001 30.433 A 29.59 29.59 0 0 1 180.27 37.595 Q 180.966 41.278 180.966 45.561 A 44.387 44.387 0 0 1 180.441 52.57 Q 179.722 57.063 178.018 60.707 A 25.369 25.369 0 0 1 174.394 66.433 A 21.038 21.038 0 0 1 169.922 70.401 A 20.679 20.679 0 0 1 159.089 73.776 A 25.15 25.15 0 0 1 158.168 73.793 A 24.278 24.278 0 0 1 154.83 73.577 Q 153.106 73.337 151.673 72.831 A 11.922 11.922 0 0 1 150.053 72.124 Q 146.911 70.455 145.135 68.217 A 41.122 41.122 0 0 1 143.918 66.609 Q 143 65.328 142.401 64.24 L 141.513 64.24 L 141.513 72.727 Z M 105.504 36.08 L 105.504 35.831 Q 105.504 31.179 102.894 28.622 Q 100.284 26.065 95.135 26.065 Q 89.773 26.065 86.701 28.427 Q 83.8 30.657 82.594 33.346 A 9.944 9.944 0 0 0 82.457 33.665 L 72.479 31.392 Q 74.254 26.42 77.681 23.349 Q 81.108 20.277 85.582 18.874 A 31.276 31.276 0 0 1 94.993 17.472 A 31.62 31.62 0 0 1 99.236 17.77 A 39.056 39.056 0 0 1 101.935 18.235 A 20.749 20.749 0 0 1 108.825 21.023 Q 112.038 23.047 114.098 26.793 A 15.155 15.155 0 0 1 115.506 30.496 Q 116.158 33.15 116.158 36.506 L 116.158 72.727 L 105.788 72.727 L 105.788 65.27 L 105.362 65.27 Q 104.348 67.299 102.334 69.259 A 21.254 21.254 0 0 1 102.273 69.318 Q 100.213 71.307 96.982 72.621 A 16.833 16.833 0 0 1 93.551 73.585 Q 91.938 73.869 90.1 73.922 A 29.714 29.714 0 0 1 89.24 73.935 A 23.943 23.943 0 0 1 83.578 73.288 A 20.185 20.185 0 0 1 79.865 71.999 A 15.552 15.552 0 0 1 73.242 66.371 A 14.422 14.422 0 0 1 71.155 61.121 A 19.995 19.995 0 0 1 70.81 57.315 A 19.725 19.725 0 0 1 71.059 54.083 Q 71.475 51.58 72.585 49.716 A 13.103 13.103 0 0 1 77.379 44.993 Q 80.398 43.253 84.126 42.365 Q 87.855 41.477 91.726 41.016 Q 96.626 40.447 99.68 40.075 Q 102.734 39.702 104.119 38.849 A 2.805 2.805 0 0 0 105.447 36.818 A 4.503 4.503 0 0 0 105.504 36.08 Z M 225 36.08 L 225 35.831 Q 225 31.179 222.39 28.622 Q 219.78 26.065 214.631 26.065 Q 209.268 26.065 206.197 28.427 Q 203.296 30.657 202.089 33.346 A 9.944 9.944 0 0 0 201.953 33.665 L 191.974 31.392 Q 193.75 26.42 197.177 23.349 Q 200.604 20.277 205.078 18.874 A 31.276 31.276 0 0 1 214.489 17.472 A 31.62 31.62 0 0 1 218.732 17.77 A 39.056 39.056 0 0 1 221.431 18.235 A 20.749 20.749 0 0 1 228.32 21.023 Q 231.534 23.047 233.594 26.793 A 15.155 15.155 0 0 1 235.002 30.496 Q 235.653 33.15 235.653 36.506 L 235.653 72.727 L 225.284 72.727 L 225.284 65.27 L 224.858 65.27 Q 223.843 67.299 221.83 69.259 A 21.254 21.254 0 0 1 221.768 69.318 Q 219.709 71.307 216.477 72.621 A 16.833 16.833 0 0 1 213.047 73.585 Q 211.434 73.869 209.596 73.922 A 29.714 29.714 0 0 1 208.736 73.935 A 23.943 23.943 0 0 1 203.073 73.288 A 20.185 20.185 0 0 1 199.361 71.999 A 15.552 15.552 0 0 1 192.738 66.371 A 14.422 14.422 0 0 1 190.651 61.121 A 19.995 19.995 0 0 1 190.305 57.315 A 19.725 19.725 0 0 1 190.555 54.083 Q 190.971 51.58 192.081 49.716 A 13.103 13.103 0 0 1 196.875 44.993 Q 199.893 43.253 203.622 42.365 Q 207.351 41.477 211.222 41.016 Q 216.122 40.447 219.176 40.075 Q 222.23 39.702 223.615 38.849 A 2.805 2.805 0 0 0 224.942 36.818 A 4.503 4.503 0 0 0 225 36.08 Z M 141.548 45.455 A 33.631 33.631 0 0 0 141.891 50.376 Q 142.305 53.17 143.217 55.54 A 17.495 17.495 0 0 0 145.11 59.184 A 13.707 13.707 0 0 0 148.047 62.305 Q 151.207 64.737 155.788 64.737 A 14.745 14.745 0 0 0 159.525 64.285 A 11.282 11.282 0 0 0 163.743 62.198 A 14.742 14.742 0 0 0 167.539 57.603 A 18.869 18.869 0 0 0 168.59 55.291 A 25.295 25.295 0 0 0 170.009 49.401 A 32.462 32.462 0 0 0 170.241 45.455 Q 170.241 40.057 168.626 35.76 A 16.705 16.705 0 0 0 166.554 31.837 A 13.817 13.817 0 0 0 163.796 28.977 A 11.719 11.719 0 0 0 158.563 26.722 A 16.03 16.03 0 0 0 155.788 26.491 A 14.864 14.864 0 0 0 152.024 26.947 A 11.501 11.501 0 0 0 147.994 28.871 Q 144.815 31.25 143.182 35.511 A 23.724 23.724 0 0 0 141.913 40.401 Q 141.571 42.621 141.55 45.12 A 39.089 39.089 0 0 0 141.548 45.455 Z M 105.54 53.054 L 105.54 46.023 A 2.325 2.325 0 0 1 105.124 46.344 Q 104.674 46.624 103.944 46.881 A 12.458 12.458 0 0 1 103.356 47.07 A 25.613 25.613 0 0 1 101.629 47.514 Q 100.725 47.715 99.713 47.882 A 40.556 40.556 0 0 1 99.68 47.887 A 152.187 152.187 0 0 1 95.912 48.457 A 139.725 139.725 0 0 1 95.668 48.491 A 4293.318 4293.318 0 0 1 94.731 48.618 Q 93.386 48.801 92.401 48.935 A 28.573 28.573 0 0 0 89.099 49.543 A 23.083 23.083 0 0 0 86.772 50.249 A 11.181 11.181 0 0 0 84.618 51.29 A 8.604 8.604 0 0 0 82.724 52.894 A 5.891 5.891 0 0 0 81.427 55.484 Q 81.218 56.378 81.215 57.424 A 10.703 10.703 0 0 0 81.214 57.457 A 8.465 8.465 0 0 0 81.559 59.939 A 6.376 6.376 0 0 0 84.126 63.406 Q 86.876 65.3 91.051 65.406 A 19.686 19.686 0 0 0 91.548 65.412 A 18.634 18.634 0 0 0 95.145 65.082 A 13.456 13.456 0 0 0 99.094 63.672 A 13.186 13.186 0 0 0 102.228 61.3 A 11.542 11.542 0 0 0 103.888 59.109 Q 105.54 56.286 105.54 53.054 Z M 225.036 53.054 L 225.036 46.023 A 2.325 2.325 0 0 1 224.619 46.344 Q 224.17 46.624 223.44 46.881 A 12.458 12.458 0 0 1 222.852 47.07 A 25.613 25.613 0 0 1 221.125 47.514 Q 220.22 47.715 219.208 47.882 A 40.556 40.556 0 0 1 219.176 47.887 A 152.187 152.187 0 0 1 215.408 48.457 A 139.725 139.725 0 0 1 215.163 48.491 A 4293.318 4293.318 0 0 1 214.227 48.618 Q 212.882 48.801 211.896 48.935 A 28.573 28.573 0 0 0 208.595 49.543 A 23.083 23.083 0 0 0 206.268 50.249 A 11.181 11.181 0 0 0 204.114 51.29 A 8.604 8.604 0 0 0 202.219 52.894 A 5.891 5.891 0 0 0 200.922 55.484 Q 200.714 56.378 200.71 57.424 A 10.703 10.703 0 0 0 200.71 57.457 A 8.465 8.465 0 0 0 201.054 59.939 A 6.376 6.376 0 0 0 203.622 63.406 Q 206.372 65.3 210.547 65.406 A 19.686 19.686 0 0 0 211.044 65.412 A 18.634 18.634 0 0 0 214.641 65.082 A 13.456 13.456 0 0 0 218.59 63.672 A 13.186 13.186 0 0 0 221.723 61.3 A 11.542 11.542 0 0 0 223.384 59.109 Q 225.036 56.286 225.036 53.054 Z" vector-effect="non-scaling-stroke"/></g></svg>